<svg xmlns="http://www.w3.org/2000/svg" version="1.1" xmlns:xlink="http://www.w3.org/1999/xlink" xmlns:svgjs="http://svgjs.dev/svgjs" width="1000" height="1000" viewBox="0 0 1000 1000"><rect width="1000" height="1000" fill="#1b4571"></rect><g transform="matrix(0.7,0,0,0.7,150,150)"><svg viewBox="0 0 280 280" data-background-color="#1b4571" preserveAspectRatio="xMidYMid meet" height="1000" width="1000" xmlns="http://www.w3.org/2000/svg" xmlns:xlink="http://www.w3.org/1999/xlink"><g id="tight-bounds" transform="matrix(1,0,0,1,0,0)"><svg viewBox="0 0 280 280" height="280" width="280"><g><svg viewBox="0 0 280 280" height="280" width="280"><g><svg viewBox="0 0 280 280" height="280" width="280"><g id="textblocktransform"><svg viewBox="0 0 280 280" height="280" width="280" id="textblock"><g><svg viewBox="0 0 280 280" height="280" width="280"><g transform="matrix(1,0,0,1,101.69971695741634,90.50252531694167)"><svg viewBox="0 0 76.60056608516732 98.99494936611666" height="98.99494936611666" width="76.60056608516732"><g><svg xmlns="http://www.w3.org/2000/svg" xmlns:xlink="http://www.w3.org/1999/xlink" version="1.1" x="0" y="0" viewBox="12.982999801635742 1 75.68599700927734 97.81300354003906" enable-background="new 0 0 100 100" xml:space="preserve" height="98.99494936611666" width="76.60056608516732" class="icon-o-0" data-fill-palette-color="accent" id="o-0"><g fill="#bf2051" data-fill-palette-color="accent"><polygon fill-rule="evenodd" clip-rule="evenodd" points="12.983,10.59 30.001,98.813 24.129,39.764 53.15,37.872 53.096,27.989    64.549,1 53.622,18.977  " fill="#bf2051" data-fill-palette-color="accent"></polygon><polygon fill-rule="evenodd" clip-rule="evenodd" points="59.389,54.548 64.549,1.007 55.809,40.723 36.197,41.768 37.767,62.23    30.001,98.813 42.058,58.914  " fill="#bf2051" data-fill-palette-color="accent"></polygon><polygon fill-rule="evenodd" clip-rule="evenodd" points="62.8,67.182 63.349,56.729 47.37,60.484 47.338,72.281 30.001,98.813    51.681,71.197  " fill="#bf2051" data-fill-palette-color="accent"></polygon><polygon fill-rule="evenodd" clip-rule="evenodd" points="65.711,62.394 80.552,57.663 82.061,45.131 66.162,47.226  " fill="#bf2051" data-fill-palette-color="accent"></polygon><polygon fill-rule="evenodd" clip-rule="evenodd" points="72.07,44.502 83.058,43.085 84.639,32.807 76.56,32.434 64.549,1    72.979,31.967  " fill="#bf2051" data-fill-palette-color="accent"></polygon><polygon fill-rule="evenodd" clip-rule="evenodd" points="87.413,31.294 88.669,21.788 79.125,19.094 64.549,1 79.032,23.437    78.61,30.437  " fill="#bf2051" data-fill-palette-color="accent"></polygon></g></svg></g></svg></g><g><path d="M36.465 93.735l-26.339-3.947 22.193 14.724-0.3 0.78-28.629-3.206 0.3-0.781 27.134 3.101-22.588-14.918 0.286-0.743 26.799 4.081-22.296-15.787 0.315-0.817 23.425 16.733z" fill="#ffffff" data-fill-palette-color="primary"></path><path d="M52.181 68.306l-12.856-8.99-8.944 12.792 12.857 8.989-0.434 0.62-22.841-15.971 0.433-0.62 9.365 6.548 8.944-12.791-9.365-6.548 0.433-0.62 22.842 15.971z" fill="#ffffff" data-fill-palette-color="primary"></path><path d="M58.167 62.281l-19.238-20.167 9.623-9.179 0.522 0.547-9.075 8.657 7.365 7.721 6.569-6.266 0.32 0.74-6.366 6.074 10.306 10.803 9.017-8.602 0.522 0.548z" fill="#ffffff" data-fill-palette-color="primary"></path><path d="M87.273 40.451l-10.611-6.578-0.794 0.605-7.84 5.033 6.044 9.415-0.67 0.43-15.057-23.453 8.007-5.141c2.211-1.42 4.269-1.826 6.173-1.219 1.904 0.607 3.559 2.005 4.964 4.194v0c0.875 1.363 1.399 2.903 1.571 4.622 0.173 1.719-0.443 3.376-1.847 4.971v0l10.764 6.669zM74.923 34.185c2.033-1.305 3.129-2.876 3.29-4.714 0.161-1.838-0.304-3.606-1.394-5.304v0c-1.319-2.055-2.842-3.333-4.567-3.834-1.725-0.501-3.56-0.128-5.503 1.12v0l-7.304 4.69 8.174 12.732z" fill="#ffffff" data-fill-palette-color="primary"></path><path d="M94.19 37.538l-10.357-25.876 12.347-4.941 0.281 0.702-11.644 4.66 3.965 9.907 8.428-3.373 0.022 0.806-8.169 3.269 5.548 13.862 11.57-4.631 0.281 0.703z" fill="#ffffff" data-fill-palette-color="primary"></path><path d="M130.732 28.452l-2.184-26.987-7.502 0.596-0.063-0.794 15.956-1.267 0.063 0.794-7.7 0.611 2.144 26.99z" fill="#ffffff" data-fill-palette-color="primary"></path><path d="M160.736 21.94c-0.21 2.673-1.178 4.574-2.904 5.703-1.726 1.129-3.727 1.605-6.003 1.426v0c-1.429-0.112-2.758-0.476-3.988-1.092-1.23-0.616-2.202-1.537-2.918-2.765-0.716-1.228-1.002-2.754-0.859-4.581v0l1.003-12.781c0.214-2.726 1.123-4.731 2.729-6.016 1.605-1.285 3.718-1.825 6.337-1.62v0c2.62 0.206 4.593 1.106 5.919 2.701 1.326 1.595 1.887 3.689 1.684 6.283v0zM160.994 8.98c0.179-2.276-0.316-4.118-1.483-5.528-1.167-1.41-3.008-2.213-5.522-2.41v0c-2.514-0.197-4.458 0.322-5.834 1.559-1.375 1.237-2.152 2.993-2.33 5.269v0l-1.01 12.86c-0.123 1.561 0.132 2.899 0.764 4.014 0.631 1.115 1.503 1.962 2.616 2.542 1.113 0.58 2.331 0.922 3.654 1.025v0c2.143 0.168 3.987-0.246 5.529-1.243 1.543-0.997 2.41-2.713 2.6-5.148v0z" fill="#ffffff" data-fill-palette-color="primary"></path><path d="M197.168 43.26l5.837-25.985-16.287 21.072-0.756-0.355 5.264-28.323 0.757 0.356-5.051 26.839 16.509-21.452 0.721 0.339-6.005 26.434 17.355-21.098 0.792 0.373-18.38 22.156z" fill="#ffffff" data-fill-palette-color="primary"></path><path d="M219.047 58.818l3.848-11.207-8.388-6.596-10.014 6.359-0.595-0.467 24.895-15.881 0.438 0.345-9.527 27.963zM228.028 32.45l-12.835 8.143 7.951 6.251z" fill="#ffffff" data-fill-palette-color="primary"></path><path d="M224.517 64.655l19.838-18.425-5.113-5.521 0.585-0.541 10.875 11.744-0.585 0.541-5.248-5.668-19.866 18.396z" fill="#ffffff" data-fill-palette-color="primary"></path><path d="M241.783 85.897c-2.055-1.458-3.658-3.031-4.81-4.72v0c-1.301-1.908-1.851-3.798-1.65-5.67 0.201-1.872 1.409-3.564 3.624-5.074v0l10.558-7.202c1.667-1.137 3.088-1.761 4.265-1.873 1.177-0.112 2.39 0.113 3.641 0.673v0c1.191 0.569 2.273 1.566 3.245 2.992v0c0.568 0.833 1.036 1.719 1.403 2.658 0.367 0.938 0.592 1.845 0.675 2.72v0l-0.738 0.118c-0.172-0.911-0.396-1.77-0.674-2.577-0.277-0.807-0.693-1.616-1.246-2.427v0c-0.987-1.447-2.3-2.512-3.938-3.194-1.638-0.682-3.608-0.238-5.91 1.333v0l-10.789 7.359c-1.952 1.331-3.064 2.845-3.337 4.541-0.273 1.696 0.204 3.443 1.431 5.241v0c1.047 1.535 2.616 3.035 4.708 4.5v0z" fill="#ffffff" data-fill-palette-color="primary"></path><path d="M249.75 105.827l14.298-6.454-6.422-14.226-14.298 6.455-0.311-0.689 25.402-11.468 0.311 0.689-10.415 4.702 6.422 14.226 10.415-4.702 0.312 0.689-25.403 11.468z" fill="#ffffff" data-fill-palette-color="primary"></path><path d="M17.885 202.041l22.665-15.117-26.932 4.11-0.309-0.799 23.886-17.255 0.309 0.799-22.684 16.308 27.365-4.234 0.295 0.761-23.106 15.33 27.743-3.366 0.324 0.835-29.247 3.426z" fill="#ffffff" data-fill-palette-color="primary"></path><path d="M36.103 231.862l13.118-9.24-9.194-13.053-13.118 9.24-0.447-0.635 23.307-16.416 0.447 0.635-9.554 6.729 9.194 13.053 9.554-6.729 0.441 0.627-23.307 16.416z" fill="#ffffff" data-fill-palette-color="primary"></path><path d="M44.511 240.626l19.607-20.695 9.878 9.359-0.534 0.563-9.314-8.824-7.503 7.919 6.741 6.388-0.743 0.365-6.532-6.189-10.502 11.084 9.249 8.763-0.534 0.564z" fill="#ffffff" data-fill-palette-color="primary"></path><path d="M76.966 264.895l1.565-12.673-0.908-0.484-8.032-5.121-6.154 9.652-0.688-0.439 15.326-24.038 8.209 5.234c2.266 1.445 3.525 3.18 3.776 5.205 0.253 2.035-0.336 4.174-1.767 6.418v0c-0.888 1.393-2.094 2.537-3.616 3.431-1.526 0.9-3.331 1.04-5.415 0.42v0l-1.574 12.855zM77.49 250.744c2.081 1.327 4.01 1.672 5.786 1.033 1.776-0.638 3.219-1.827 4.329-3.567v0c1.345-2.109 1.881-4.074 1.609-5.892-0.276-1.813-1.41-3.355-3.403-4.625v0l-7.486-4.774-8.322 13.051z" fill="#ffffff" data-fill-palette-color="primary"></path><path d="M86.975 269.354l10.517-26.497 12.647 5.02-0.286 0.721-11.926-4.733-4.025 10.14 8.632 3.426-0.554 0.615-8.364-3.319-5.633 14.192 11.842 4.7-0.286 0.722z" fill="#ffffff" data-fill-palette-color="primary"></path><path d="M129.189 279.699l2.139-27.609-7.671-0.605 0.065-0.814 16.323 1.288-0.064 0.814-7.879-0.622-2.179 27.606z" fill="#ffffff" data-fill-palette-color="primary"></path><path d="M161.328 271.344c0.213 2.732-0.461 4.808-2.02 6.228-1.567 1.413-3.515 2.211-5.844 2.392v0c-1.462 0.114-2.862-0.043-4.201-0.471-1.345-0.428-2.473-1.205-3.386-2.332-0.92-1.126-1.452-2.622-1.598-4.488v0l-1.019-13.07c-0.218-2.792 0.382-4.965 1.798-6.52 1.417-1.548 3.465-2.427 6.145-2.636v0c2.679-0.209 4.816 0.387 6.409 1.787 1.593 1.4 2.494 3.427 2.701 6.08v0zM159.525 258.205c-0.181-2.322-0.972-4.104-2.373-5.346-1.401-1.242-3.389-1.763-5.963-1.562v0c-2.574 0.201-4.455 1.036-5.645 2.507-1.197 1.471-1.704 3.371-1.523 5.7v0l1.025 13.149c0.125 1.601 0.596 2.912 1.415 3.933 0.812 1.028 1.827 1.748 3.044 2.159 1.216 0.404 2.503 0.554 3.859 0.448v0c2.19-0.171 3.985-0.883 5.384-2.137 1.4-1.247 2.003-3.118 1.809-5.612v0z" fill="#ffffff" data-fill-palette-color="primary"></path><path d="M205.742 263.025l-16.626-21.583 5.935 26.59-0.776 0.363-18.842-22.656 0.775-0.363 17.816 21.52-6.088-27.012 0.739-0.346 16.869 22.008-5.25-27.45 0.812-0.38 5.411 28.946z" fill="#ffffff" data-fill-palette-color="primary"></path><path d="M231.584 245.025l-10.207-6.541-8.583 6.735 3.896 11.494-0.611 0.479-9.753-28.584 0.454-0.357 25.477 16.246zM207.561 229.714l4.987 14.724 8.136-6.385z" fill="#ffffff" data-fill-palette-color="primary"></path><path d="M239.121 237.295l-20.309-18.825-5.239 5.635-0.598-0.555 11.149-11.993 0.598 0.556-5.381 5.788 20.281 18.855z" fill="#ffffff" data-fill-palette-color="primary"></path><path d="M256.823 212.657c-0.629 2.498-1.535 4.609-2.718 6.332v0c-1.337 1.947-2.935 3.172-4.794 3.675-1.859 0.503-3.92-0.024-6.185-1.579v0l-10.774-7.399c-1.701-1.168-2.824-2.294-3.368-3.376-0.539-1.079-0.774-2.319-0.706-3.72v0c0.103-1.346 0.655-2.746 1.654-4.202v0c0.582-0.848 1.255-1.622 2.017-2.322 0.759-0.695 1.539-1.245 2.343-1.652v0l0.388 0.666c-0.809 0.499-1.546 1.032-2.209 1.598-0.669 0.563-1.286 1.258-1.854 2.084v0c-1.014 1.477-1.544 3.122-1.589 4.934-0.045 1.812 1.108 3.526 3.46 5.142v0l11.012 7.562c1.991 1.367 3.845 1.868 5.562 1.502 1.717-0.367 3.206-1.469 4.469-3.307v0c1.074-1.564 1.923-3.614 2.544-6.15v0z" fill="#ffffff" data-fill-palette-color="primary"></path><path d="M268.055 190.773l-14.599-6.658-6.625 14.527 14.599 6.658-0.322 0.706-25.938-11.829 0.322-0.706 10.633 4.849 6.625-14.527-10.633-4.849 0.319-0.698 25.938 11.83z" fill="#ffffff" data-fill-palette-color="primary"></path><path d="M3.985 144.023c0-6.014 4.876-10.89 10.891-10.89 6.014 0 10.89 4.876 10.89 10.89 0 6.014-4.876 10.89-10.89 10.89-6.014 0-10.89-4.876-10.891-10.89z" fill="#ffffff" data-fill-palette-color="primary"></path><path d="M254.83 144.023c0-6.014 4.876-10.89 10.89-10.89 6.014 0 10.89 4.876 10.89 10.89 0 6.014-4.876 10.89-10.89 10.89-6.014 0-10.89-4.876-10.89-10.89z" fill="#ffffff" data-fill-palette-color="primary"></path></g></svg></g></svg></g></svg></g></svg></g><defs></defs></svg><rect width="280" height="280" fill="none" stroke="none" visibility="hidden"></rect></g></svg></g></svg>